# Blender v2.90.0 OBJ File: ''
# www.blender.org
o Shade_Cylinder.002
v 0.000000 7.623212 -0.464958
v 0.156072 6.223212 -0.784627
v 0.000000 6.223212 -0.799999
v 0.090709 7.623212 -0.456024
v 0.306147 6.223212 -0.739103
v 0.177932 7.623212 -0.429565
v 0.444456 6.223212 -0.665175
v 0.258318 7.623212 -0.386599
v 0.565685 6.223212 -0.565684
v 0.328776 7.623212 -0.328775
v 0.665176 6.223212 -0.444455
v 0.386600 7.623212 -0.258317
v 0.739104 6.223212 -0.306146
v 0.456025 7.623212 -0.090708
v 0.784628 6.223212 -0.156071
v 0.800000 6.223212 0.000001
v 0.464959 7.623212 0.000001
v 0.784628 6.223212 0.156073
v 0.456025 7.623212 0.090710
v 0.739104 6.223212 0.306148
v 0.429566 7.623212 0.177933
v 0.665176 6.223212 0.444457
v 0.386600 7.623212 0.258318
v 0.565685 6.223212 0.565686
v 0.328776 7.623212 0.328777
v 0.444456 6.223212 0.665177
v 0.258318 7.623212 0.386600
v 0.306147 6.223212 0.739105
v 0.177932 7.623212 0.429567
v 0.156072 6.223212 0.784629
v 0.090709 7.623212 0.456026
v 0.000000 6.223212 0.800001
v 0.000000 7.623212 0.464960
v -0.156073 6.223212 0.784629
v -0.090709 7.623212 0.456026
v -0.306147 6.223212 0.739104
v -0.177932 7.623212 0.429567
v -0.444457 6.223212 0.665176
v -0.258318 7.623212 0.386600
v -0.565686 6.223212 0.565686
v -0.328776 7.623212 0.328777
v -0.665176 6.223212 0.444457
v -0.386600 7.623212 0.258318
v -0.739104 6.223212 0.306147
v -0.429566 7.623212 0.177933
v -0.784628 6.223212 0.156073
v -0.456025 7.623212 0.090710
v -0.800000 6.223212 -0.000000
v -0.464959 7.623212 -0.000000
v -0.784628 6.223212 -0.156072
v -0.429566 7.623212 -0.177932
v -0.739103 6.223212 -0.306147
v -0.665175 6.223212 -0.444456
v -0.328775 7.623212 -0.328775
v -0.565685 6.223212 -0.565685
v -0.444455 6.223212 -0.665175
v -0.258317 7.623212 -0.386599
v -0.306146 6.223212 -0.739103
v -0.177932 7.623212 -0.429566
v -0.156071 6.223212 -0.784627
v -0.090708 7.623212 -0.456024
v 0.429566 7.623212 -0.177931
v -0.456025 7.623212 -0.090709
v -0.386599 7.623212 -0.258317
vt 0.632161 0.473644
vt 0.635556 0.002490
vt 0.673251 0.007373
vt 0.610253 0.470806
vt 0.595540 0.000000
vt 0.586996 0.469359
vt 0.554739 0.000000
vt 0.563283 0.469359
vt 0.514723 0.002489
vt 0.540025 0.470806
vt 0.477028 0.007372
vt 0.518117 0.473643
vt 0.443104 0.014462
vt 0.481633 0.483008
vt 0.414254 0.023484
vt 0.677571 0.963619
vt 0.706910 0.494028
vt 0.735928 0.502159
vt 0.660705 0.958893
vt 0.672857 0.487985
vt 0.640914 0.955381
vt 0.635078 0.484264
vt 0.618957 0.953218
vt 0.595025 0.483008
vt 0.595678 0.952488
vt 0.554237 0.484264
vt 0.571972 0.953218
vt 0.514281 0.487985
vt 0.548750 0.955381
vt 0.476694 0.494027
vt 0.526904 0.958893
vt 0.442919 0.502159
vt 0.507274 0.963619
vt 0.414254 0.512067
vt 0.217787 0.995274
vt 0.229939 0.524366
vt 0.263992 0.530409
vt 0.197996 0.991762
vt 0.192160 0.520645
vt 0.176038 0.989600
vt 0.152106 0.519389
vt 0.152759 0.988869
vt 0.111318 0.520645
vt 0.129054 0.989599
vt 0.071363 0.524366
vt 0.105831 0.991762
vt 0.033775 0.530409
vt 0.083986 0.995274
vt 0.000000 0.538540
vt 0.944703 0.960772
vt 0.966076 0.490381
vt 1.000000 0.497470
vt 0.924986 0.956651
vt 0.928381 0.485497
vt 0.879820 0.952367
vt 0.888364 0.483008
vt 0.847564 0.483008
vt 0.832850 0.953814
vt 0.807548 0.485497
vt 0.769853 0.490380
vt 0.810942 0.956652
vt 0.735928 0.497469
vt 0.963089 0.079440
vt 0.913429 0.284690
vt 0.749726 0.222428
vt 0.668646 0.483008
vt 0.707175 0.014462
vt 0.736025 0.023485
vt 0.651878 0.477764
vt 0.414254 0.234117
vt 0.227527 0.519389
vt 0.000000 0.285272
vt 0.498400 0.477764
vt 0.234653 1.000000
vt 0.064355 1.000000
vt 0.903078 0.953813
vt 0.856107 0.952367
vt 0.791225 0.960772
vt 0.799385 0.017178
vt 0.821294 0.005800
vt 0.844551 0.000000
vt 0.868264 0.000000
vt 0.891522 0.005800
vt 0.913430 0.017178
vt 0.933146 0.033696
vt 0.949914 0.054719
vt 0.972163 0.106908
vt 0.976789 0.136069
vt 0.976789 0.165800
vt 0.972163 0.194960
vt 0.963088 0.222428
vt 0.949914 0.247150
vt 0.933146 0.268173
vt 0.891521 0.296068
vt 0.868264 0.301868
vt 0.844551 0.301869
vt 0.821293 0.296068
vt 0.799385 0.284690
vt 0.779668 0.268172
vt 0.762900 0.247149
vt 0.740652 0.194960
vt 0.736025 0.165800
vt 0.736026 0.136068
vt 0.740652 0.106908
vt 0.749726 0.079440
vt 0.762901 0.054719
vt 0.779668 0.033696
vt 0.186727 0.000000
vt 0.227527 0.000000
vt 0.267544 0.009980
vt 0.305239 0.029556
vt 0.339163 0.057977
vt 0.368013 0.094150
vt 0.390681 0.136684
vt 0.406294 0.183945
vt 0.414254 0.285273
vt 0.406294 0.335445
vt 0.390680 0.382707
vt 0.368013 0.425241
vt 0.339162 0.461413
vt 0.305238 0.489833
vt 0.267543 0.509410
vt 0.186726 0.519389
vt 0.146710 0.509409
vt 0.109015 0.489833
vt 0.075091 0.461412
vt 0.046241 0.425240
vt 0.023573 0.382706
vt 0.007960 0.335444
vt 0.000000 0.234116
vt 0.007960 0.183944
vt 0.023574 0.136682
vt 0.046241 0.094148
vt 0.075092 0.057976
vt 0.109016 0.029556
vt 0.146711 0.009980
vn 0.0954 0.2317 -0.9681
vn 0.2824 0.2317 -0.9309
vn 0.4586 0.2317 -0.8579
vn 0.6171 0.2317 -0.7520
vn 0.7520 0.2317 -0.6171
vn 0.8579 0.2317 -0.4586
vn 0.9309 0.2317 -0.2824
vn 0.9681 0.2317 -0.0953
vn 0.9681 0.2317 -0.0954
vn 0.9681 0.2317 0.0954
vn 0.9309 0.2317 0.2824
vn 0.8579 0.2317 0.4586
vn 0.7520 0.2317 0.6171
vn 0.6171 0.2317 0.7520
vn 0.4586 0.2317 0.8579
vn 0.2824 0.2317 0.9309
vn 0.0953 0.2317 0.9681
vn 0.0954 0.2317 0.9681
vn -0.0953 0.2317 0.9681
vn -0.0954 0.2317 0.9681
vn -0.2824 0.2317 0.9309
vn -0.4586 0.2317 0.8579
vn -0.6171 0.2317 0.7520
vn -0.7520 0.2317 0.6171
vn -0.8579 0.2317 0.4586
vn -0.9309 0.2317 0.2824
vn -0.9681 0.2317 0.0953
vn -0.9681 0.2317 0.0954
vn -0.9681 0.2317 -0.0954
vn -0.9309 0.2317 -0.2824
vn -0.8579 0.2317 -0.4586
vn -0.7520 0.2317 -0.6171
vn -0.6171 0.2317 -0.7520
vn -0.4586 0.2317 -0.8579
vn 0.0000 1.0000 0.0000
vn -0.2824 0.2317 -0.9309
vn -0.0954 0.2317 -0.9681
vn 0.0000 -1.0000 -0.0000
vn 0.0000 1.0000 0.0001
vn 0.0000 1.0000 -0.0001
s 1
f 1/1/1 2/2/1 3/3/1
f 4/4/2 5/5/2 2/2/2
f 6/6/3 7/7/3 5/5/3
f 8/8/4 9/9/4 7/7/4
f 10/10/5 11/11/5 9/9/5
f 12/12/6 13/13/6 11/11/6
f 13/13/7 14/14/7 15/15/7
f 14/16/8 16/17/9 15/18/9
f 17/19/10 18/20/10 16/17/10
f 19/21/11 20/22/11 18/20/11
f 21/23/12 22/24/12 20/22/12
f 23/25/13 24/26/13 22/24/13
f 25/27/14 26/28/14 24/26/14
f 27/29/15 28/30/15 26/28/15
f 29/31/16 30/32/16 28/30/16
f 31/33/17 32/34/18 30/32/18
f 33/35/19 34/36/20 32/37/20
f 35/38/21 36/39/21 34/36/21
f 37/40/22 38/41/22 36/39/22
f 39/42/23 40/43/23 38/41/23
f 41/44/24 42/45/24 40/43/24
f 43/46/25 44/47/25 42/45/25
f 45/48/26 46/49/26 44/47/26
f 47/50/27 48/51/28 46/52/28
f 49/53/29 50/54/29 48/51/29
f 50/54/30 51/55/30 52/56/30
f 51/55/31 53/57/31 52/56/31
f 53/57/32 54/58/32 55/59/32
f 54/58/33 56/60/33 55/59/33
f 57/61/34 58/62/34 56/60/34
f 51/63/35 37/64/35 21/65/35
f 59/66/36 60/67/36 58/68/36
f 61/69/37 3/3/37 60/67/37
f 15/70/38 30/71/38 46/72/38
f 1/1/1 4/4/1 2/2/1
f 4/4/2 6/6/2 5/5/2
f 6/6/3 8/8/3 7/7/3
f 8/8/4 10/10/4 9/9/4
f 10/10/5 12/12/5 11/11/5
f 12/12/6 62/73/6 13/13/6
f 13/13/7 62/73/7 14/14/7
f 14/16/8 17/19/8 16/17/9
f 17/19/10 19/21/10 18/20/10
f 19/21/11 21/23/11 20/22/11
f 21/23/12 23/25/12 22/24/12
f 23/25/13 25/27/13 24/26/13
f 25/27/14 27/29/14 26/28/14
f 27/29/15 29/31/15 28/30/15
f 29/31/16 31/33/16 30/32/16
f 31/74/17 33/35/17 32/37/18
f 33/35/19 35/38/19 34/36/20
f 35/38/21 37/40/21 36/39/21
f 37/40/22 39/42/22 38/41/22
f 39/42/23 41/44/23 40/43/23
f 41/44/24 43/46/24 42/45/24
f 43/46/25 45/48/25 44/47/25
f 45/48/26 47/75/26 46/49/26
f 47/50/27 49/53/27 48/51/28
f 49/53/29 63/76/29 50/54/29
f 50/54/30 63/76/30 51/55/30
f 51/55/31 64/77/31 53/57/31
f 53/57/32 64/77/32 54/58/32
f 54/58/33 57/61/33 56/60/33
f 57/61/34 59/78/34 58/62/34
f 6/79/35 4/80/39 1/81/35
f 1/81/35 61/82/35 59/83/35
f 59/83/35 57/84/39 54/85/35
f 54/85/35 64/86/35 51/63/35
f 51/63/35 63/87/35 49/88/35
f 49/88/35 47/89/35 51/63/35
f 47/89/35 45/90/35 51/63/35
f 45/90/35 43/91/35 41/92/35
f 41/92/35 39/93/35 37/64/35
f 37/64/35 35/94/40 33/95/35
f 33/95/35 31/96/35 37/64/35
f 31/96/35 29/97/35 37/64/35
f 29/97/35 27/98/35 25/99/35
f 25/99/35 23/100/35 21/65/35
f 21/65/35 19/101/35 17/102/35
f 17/102/35 14/103/35 62/104/35
f 62/104/35 12/105/35 10/106/35
f 10/106/35 8/107/35 62/104/35
f 8/107/35 6/79/35 62/104/35
f 6/79/35 1/81/35 51/63/35
f 1/81/35 59/83/35 51/63/35
f 59/83/35 54/85/35 51/63/35
f 45/90/35 41/92/35 51/63/35
f 41/92/35 37/64/35 51/63/35
f 29/97/35 25/99/35 37/64/35
f 25/99/35 21/65/35 37/64/35
f 21/65/35 17/102/35 6/79/35
f 17/102/35 62/104/35 6/79/35
f 6/79/35 51/63/35 21/65/35
f 59/66/36 61/69/36 60/67/36
f 61/69/37 1/1/37 3/3/37
f 60/108/38 3/109/38 2/110/38
f 2/110/38 5/111/38 7/112/38
f 7/112/38 9/113/38 11/114/38
f 11/114/38 13/115/38 7/112/38
f 13/115/38 15/70/38 7/112/38
f 15/70/38 16/116/38 18/117/38
f 18/117/38 20/118/38 15/70/38
f 20/118/38 22/119/38 15/70/38
f 22/119/38 24/120/38 30/71/38
f 24/120/38 26/121/38 30/71/38
f 26/121/38 28/122/38 30/71/38
f 30/71/38 32/123/38 34/124/38
f 34/124/38 36/125/38 38/126/38
f 38/126/38 40/127/38 42/128/38
f 42/128/38 44/129/38 46/72/38
f 46/72/38 48/130/38 50/131/38
f 50/131/38 52/132/38 53/133/38
f 53/133/38 55/134/38 60/108/38
f 55/134/38 56/135/38 60/108/38
f 56/135/38 58/136/38 60/108/38
f 60/108/38 2/110/38 7/112/38
f 30/71/38 34/124/38 46/72/38
f 34/124/38 38/126/38 46/72/38
f 38/126/38 42/128/38 46/72/38
f 46/72/38 50/131/38 60/108/38
f 50/131/38 53/133/38 60/108/38
f 60/108/38 7/112/38 15/70/38
f 15/70/38 22/119/38 30/71/38
f 60/108/38 15/70/38 46/72/38
